<?xml version="1.0" encoding="UTF-8" standalone="no"?>
<svg
   xmlns:dc="http://purl.org/dc/elements/1.1/"
   xmlns:cc="http://creativecommons.org/ns#"
   xmlns:rdf="http://www.w3.org/1999/02/22-rdf-syntax-ns#"
   xmlns:svg="http://www.w3.org/2000/svg"
   xmlns="http://www.w3.org/2000/svg"
   xmlns:sodipodi="http://sodipodi.sourceforge.net/DTD/sodipodi-0.dtd"
   xmlns:inkscape="http://www.inkscape.org/namespaces/inkscape"
   inkscape:version="1.0 (4035a4fb49, 2020-05-01)"
   sodipodi:docname="open_sun.svg"
   id="svg863"
   version="1.1"
   width="24"
   viewBox="0 0 24 24"
   height="24">
  <metadata
     id="metadata869">
    <rdf:RDF>
      <cc:Work
         rdf:about="">
        <dc:format>image/svg+xml</dc:format>
        <dc:type
           rdf:resource="http://purl.org/dc/dcmitype/StillImage" />
        <dc:title></dc:title>
      </cc:Work>
    </rdf:RDF>
  </metadata>
  <defs
     id="defs867" />
  <sodipodi:namedview
     inkscape:current-layer="svg863"
     inkscape:window-maximized="0"
     inkscape:window-y="156"
     inkscape:window-x="194"
     inkscape:cy="12"
     inkscape:cx="13.898207"
     inkscape:zoom="1.1849519"
     showgrid="false"
     id="namedview865"
     inkscape:window-height="754"
     inkscape:window-width="920"
     inkscape:pageshadow="2"
     inkscape:pageopacity="0"
     guidetolerance="10"
     gridtolerance="10"
     objecttolerance="10"
     borderopacity="1"
     bordercolor="#666666"
     pagecolor="#ffffff" />
  <path
     style="stroke-width:1.07098"
     id="path859"
     fill="none"
     d="M -0.8343067,-0.76478114 H 24.834307 V 24.973358 H -0.8343067 Z" />
  <path
     style="stroke-width:1.07098"
     sodipodi:nodetypes="csccsscsccsscsscsscsscsscsssss"
     id="path861"
     d="m 20.556205,15.654006 2.780766,-2.788298 c 0.417115,-0.418244 0.417115,-1.093871 0,-1.512116 L 20.556205,8.55457 V 4.5973312 c 0,-0.5898324 -0.481287,-1.0724225 -1.069526,-1.0724225 h -3.94655 L 12.759363,0.73661029 c -0.417115,-0.41824479 -1.090916,-0.41824479 -1.508031,0 L 8.4598704,3.5249087 H 4.5133211 c -0.588239,0 -1.0695256,0.4825901 -1.0695256,1.0724225 V 8.55457 l -2.78076641,2.788299 c -0.41711498,0.418244 -0.41711498,1.09387 0,1.512116 l 2.78076641,2.788298 v 3.967963 c 0,0.589832 0.4812866,1.072422 1.0695256,1.072422 h 3.9465493 l 2.7807666,2.788299 c 0.417115,0.418244 1.090916,0.418244 1.508031,0 l 2.780767,-2.788299 h 3.957244 c 0.588239,0 1.069526,-0.48259 1.069526,-1.072422 z M 12,20.2806 C 7.3929144,20.256748 3.8681934,16.440562 3.8448357,12.104288 3.8209692,7.6735889 7.5501932,3.9077223 12,3.9279766 16.670145,3.9492342 20.19756,7.799796 20.155165,12.104288 20.112767,16.409411 16.669717,20.304778 12,20.2806 Z" />
</svg>
