<?xml version="1.0" encoding="UTF-8" standalone="no"?>
<svg
   xmlns:dc="http://purl.org/dc/elements/1.1/"
   xmlns:cc="http://creativecommons.org/ns#"
   xmlns:rdf="http://www.w3.org/1999/02/22-rdf-syntax-ns#"
   xmlns:svg="http://www.w3.org/2000/svg"
   xmlns="http://www.w3.org/2000/svg"
   xmlns:sodipodi="http://sodipodi.sourceforge.net/DTD/sodipodi-0.dtd"
   xmlns:inkscape="http://www.inkscape.org/namespaces/inkscape"
   inkscape:version="1.0 (4035a4fb49, 2020-05-01)"
   sodipodi:docname="hour.svg"
   id="svg887"
   version="1.1"
   width="24"
   viewBox="0 0 24 24"
   height="24">
  <metadata
     id="metadata893">
    <rdf:RDF>
      <cc:Work
         rdf:about="">
        <dc:format>image/svg+xml</dc:format>
        <dc:type
           rdf:resource="http://purl.org/dc/dcmitype/StillImage" />
        <dc:title />
      </cc:Work>
    </rdf:RDF>
  </metadata>
  <defs
     id="defs891" />
  <sodipodi:namedview
     inkscape:current-layer="svg887"
     inkscape:window-maximized="0"
     inkscape:window-y="69"
     inkscape:window-x="338"
     inkscape:cy="11.014021"
     inkscape:cx="12"
     inkscape:zoom="3.0323572"
     showgrid="false"
     id="namedview889"
     inkscape:window-height="796"
     inkscape:window-width="1396"
     inkscape:pageshadow="2"
     inkscape:pageopacity="0"
     guidetolerance="10"
     gridtolerance="10"
     objecttolerance="10"
     borderopacity="1"
     bordercolor="#666666"
     pagecolor="#ffffff"
     inkscape:document-rotation="0"
     inkscape:snap-global="false">
    <inkscape:grid
       id="grid1461"
       type="xygrid" />
  </sodipodi:namedview>
  <path
     id="path883"
     fill="none"
     d="M0 0h24v24H0V0z" />
  <path
     sodipodi:nodetypes="ssssssssss"
     id="path885"
     d="m 12.01361,0.23807574 c -6.5066015,0 -11.77553426,5.27233646 -11.77553426,11.76860826 0,6.496271 5.26893276,11.768608 11.77553426,11.768608 6.518389,0 11.799109,-5.272337 11.799109,-11.768608 0,-6.4962718 -5.28072,-11.76860826 -11.799109,-11.76860826 z M 12.0254,21.892315 c -5.2099966,0 -9.9013507,-4.683906 -9.9013507,-9.885631 0,-5.2017249 4.6913541,-9.8856309 9.9013507,-9.8856309 5.209996,0 9.90135,4.683906 9.90135,9.8856309 0,5.201725 -4.691354,9.885631 -9.90135,9.885631 z"
     style="stroke-width:1.1778" />
  <ellipse
     style="fill:#000000;fill-opacity:1;stroke-width:1.39359"
     id="path1465-2"
     cx="12.001446"
     cy="2.2171223"
     rx="0.82511258"
     ry="1.1768607" />
  <ellipse
     ry="1.1768607"
     rx="0.82511258"
     cy="21.783976"
     cx="12.00714"
     id="path1465-2-9"
     style="fill:#000000;fill-opacity:1;stroke-width:1.39359" />
  <ellipse
     transform="matrix(-0.00628293,0.99998026,-0.9999247,-0.01227193,0,0)"
     ry="1.1787754"
     rx="0.82369179"
     cy="-2.3055029"
     cx="11.984282"
     id="path1465-2-4"
     style="fill:#000000;fill-opacity:1;stroke-width:1.39352" />
  <ellipse
     style="fill:#000000;fill-opacity:1;stroke-width:1.39352"
     id="path1465-2-4-4"
     cx="11.784746"
     cy="-21.844015"
     rx="0.82369179"
     ry="1.1787754"
     transform="matrix(-0.00628293,0.99998026,-0.9999247,-0.01227193,0,0)" />
  <ellipse
     transform="matrix(-0.64240315,0.76636688,-0.7602334,-0.64965004,0,0)"
     ry="1.3265162"
     rx="0.66431427"
     cy="-26.966824"
     cx="1.9987658"
     id="path1465-2-4-4-2"
     style="fill:#000000;fill-opacity:1;stroke-width:1.32757" />
  <ellipse
     style="fill:#000000;fill-opacity:1;stroke-width:1.32696"
     id="path1465-2-4-4-2-2"
     cx="-16.951447"
     cy="10.477076"
     rx="0.66353208"
     ry="1.3268565"
     transform="matrix(-0.68359469,-0.72986184,0.72816209,-0.68540497,0,0)" />
  <ellipse
     style="fill:#000000;fill-opacity:1;stroke-width:1.32757"
     id="path1465-2-4-4-2-0"
     cx="0.65163934"
     cy="-7.1993952"
     rx="0.66431427"
     ry="1.3265162"
     transform="matrix(-0.64240315,0.76636688,-0.7602334,-0.64965004,0,0)" />
  <ellipse
     transform="matrix(-0.68359465,-0.72986187,0.72816206,-0.685405,0,0)"
     ry="1.3268565"
     rx="0.66353202"
     cy="-9.3299093"
     cx="-17.456831"
     id="path1465-2-4-4-2-2-9"
     style="fill:#000000;fill-opacity:1;stroke-width:1.32695" />
</svg>
