<?xml version="1.0" encoding="UTF-8" standalone="no"?>
<svg
   xmlns:dc="http://purl.org/dc/elements/1.1/"
   xmlns:cc="http://creativecommons.org/ns#"
   xmlns:rdf="http://www.w3.org/1999/02/22-rdf-syntax-ns#"
   xmlns:svg="http://www.w3.org/2000/svg"
   xmlns="http://www.w3.org/2000/svg"
   xmlns:sodipodi="http://sodipodi.sourceforge.net/DTD/sodipodi-0.dtd"
   xmlns:inkscape="http://www.inkscape.org/namespaces/inkscape"
   inkscape:version="1.0 (4035a4fb49, 2020-05-01)"
   sodipodi:docname="minute.svg"
   id="svg1643"
   version="1.1"
   width="24"
   viewBox="0 0 24 24"
   height="24">
  <metadata
     id="metadata1649">
    <rdf:RDF>
      <cc:Work
         rdf:about="">
        <dc:format>image/svg+xml</dc:format>
        <dc:type
           rdf:resource="http://purl.org/dc/dcmitype/StillImage" />
        <dc:title></dc:title>
      </cc:Work>
    </rdf:RDF>
  </metadata>
  <defs
     id="defs1647" />
  <sodipodi:namedview
     inkscape:current-layer="svg1643"
     inkscape:window-maximized="0"
     inkscape:window-y="9"
     inkscape:window-x="450"
     inkscape:cy="11.027601"
     inkscape:cx="13.127188"
     inkscape:zoom="5.6532767"
     showgrid="false"
     id="namedview1645"
     inkscape:window-height="848"
     inkscape:window-width="1311"
     inkscape:pageshadow="2"
     inkscape:pageopacity="0"
     guidetolerance="10"
     gridtolerance="10"
     objecttolerance="10"
     borderopacity="1"
     bordercolor="#666666"
     pagecolor="#ffffff" />
  <path
     id="path1639"
     fill="none"
     d="M0 0h24v24H0V0z" />
  <path
     style="stroke-width:1.18858"
     sodipodi:nodetypes="ssssssscsssccscsscsssss"
     id="path1641"
     d="M 15.02,0.24198251 H 8.984 c -0.6924035,0 -1.259,0.50497709 -1.259,1.12217129 0,0.6171942 0.5665965,1.1221713 1.259,1.1221713 h 5.936 c 0.692403,0 1.359,-0.5049771 1.359,-1.1221713 0,-0.6171942 -0.566597,-1.12217129 -1.259,-1.12217129 z m 5.832298,7.17067469 0.944187,-0.8416285 c 0.478388,-0.4264251 0.490977,-1.133393 0,-1.5710399 l -0.01258,-0.011222 c -0.490977,-0.4376469 -1.271505,-0.4264251 -1.762482,0 L 19.177,5.53 C 17.225677,4.1385077 14.671022,3.3752602 12.00212,3.3752602 5.959325,3.3752602 0.82294889,8.0522949 0.67187901,13.438717 0.50821996,19.139347 5.6320069,23.80758 12.00212,23.80758 c 6.2694,0 11.330242,-4.52235 11.330242,-10.099542 0,-2.379003 -0.931598,-4.5672369 -2.480064,-6.2953808 z M 12.00212,21.963 C 7.1301166,21.963 2.79,18.050841 2.79,13.708038 c 0,-4.3428026 4.3401166,-8.3882742 9.21212,-8.3882742 4.872004,0 9.21288,4.0454336 9.21288,8.3882362 0,4.342803 -4.340876,8.255 -9.21288,8.255 z" />
  <path
     style="stroke-width:1.34522"
     d="M 5.0680187,5.8364697 4.0701153,4.8164346 C 3.5645112,4.2996178 2.7245143,4.284227 2.2033935,4.8123946 l -0.013361,0.013545 C 1.6689119,5.3541011 1.7971059,6.0206418 2.302681,6.5510309 L 4.2918382,8.1541552 C 6.979339,5.4429703 2.9969468,9.3204725 5.7094211,6.6527923 Z"
     id="path1641-4"
     sodipodi:nodetypes="cssscccc" />
</svg>
