<?xml version="1.0" encoding="UTF-8" standalone="no"?>
<svg
   xmlns:dc="http://purl.org/dc/elements/1.1/"
   xmlns:cc="http://creativecommons.org/ns#"
   xmlns:rdf="http://www.w3.org/1999/02/22-rdf-syntax-ns#"
   xmlns:svg="http://www.w3.org/2000/svg"
   xmlns="http://www.w3.org/2000/svg"
   xmlns:xlink="http://www.w3.org/1999/xlink"
   xmlns:sodipodi="http://sodipodi.sourceforge.net/DTD/sodipodi-0.dtd"
   xmlns:inkscape="http://www.inkscape.org/namespaces/inkscape"
   inkscape:version="1.0 (4035a4f, 2020-05-01)"
   height="186.07001"
   width="199.12"
   sodipodi:docname="WCO_acrV_FR_Col.svg"
   version="1.1"
   viewBox="0 0 199.11999 186.07"
   data-name="Layer 1"
   id="Layer_1">
  <metadata
     id="metadata62">
    <rdf:RDF>
      <cc:Work
         rdf:about="">
        <dc:format>image/svg+xml</dc:format>
        <dc:type
           rdf:resource="http://purl.org/dc/dcmitype/StillImage" />
        <dc:title>WCO_acrV_FR_Col</dc:title>
      </cc:Work>
    </rdf:RDF>
  </metadata>
  <sodipodi:namedview
     showborder="true"
     fit-margin-bottom="0"
     fit-margin-right="0"
     fit-margin-left="0"
     fit-margin-top="0"
     units="mm"
     inkscape:current-layer="Layer_1"
     inkscape:window-maximized="1"
     inkscape:window-y="23"
     inkscape:window-x="0"
     inkscape:cy="177.88018"
     inkscape:cx="-55.911328"
     inkscape:zoom="0.8225277"
     showgrid="false"
     id="namedview60"
     inkscape:window-height="1035"
     inkscape:window-width="1920"
     inkscape:pageshadow="2"
     inkscape:pageopacity="0"
     guidetolerance="10"
     gridtolerance="10"
     objecttolerance="10"
     borderopacity="1"
     bordercolor="#666666"
     pagecolor="#ffffff" />
  <defs
     id="defs47">
    <linearGradient
       gradientTransform="translate(-216.26,-223.93)"
       gradientUnits="userSpaceOnUse"
       y2="289.01999"
       x2="315.82001"
       y1="409.94"
       x1="315.82001"
       id="New_Gradient_Swatch_3">
      <stop
         id="stop36"
         stop-color="#0064b1"
         offset="0" />
      <stop
         id="stop38"
         stop-color="#00aeef"
         offset="1" />
    </linearGradient>
    <linearGradient
       gradientUnits="userSpaceOnUse"
       y2="339.04999"
       x2="282.19"
       y1="229.34"
       x1="282.19"
       id="New_Gradient_Swatch_2">
      <stop
         id="stop41"
         stop-color="#6d6e71"
         offset="0" />
      <stop
         id="stop43"
         stop-color="#c7c8ca"
         offset="1" />
    </linearGradient>
    <linearGradient
       gradientTransform="translate(-216.26,-223.93)"
       xlink:href="#New_Gradient_Swatch_2"
       y2="339.48999"
       x2="349.29999"
       y1="224.61"
       x1="349.29999"
       id="New_Gradient_Swatch_2-2" />
    <linearGradient
       gradientTransform="translate(-216.26,-223.93)"
       y2="339.04999"
       x2="282.19"
       y1="229.34"
       x1="282.19"
       gradientUnits="userSpaceOnUse"
       id="linearGradient64"
       xlink:href="#New_Gradient_Swatch_2"
       inkscape:collect="always" />
  </defs>
  <title
     id="title49">WCO_acrV_FR_Col</title>
  <path
     style="fill:url(#New_Gradient_Swatch_3)"
     id="path53"
     fill="url(#New_Gradient_Swatch_3)"
     d="m 172.3,65.07 c -0.68,39.53 -32.73,71.37 -72.23,71.37 -39.5,0 -71.54,-31.82 -72.23,-71.37 H 0 c 0.19,48.92 34.11,89.06 79.66,98 6.19,1.2 17.68,5.82 20.52,23 3,-17.14 13.58,-22.19 19.23,-23.25 45.32,-8.51 79.52,-49.25 79.71,-97.67 z" />
  <path
     style="fill:url(#linearGradient64)"
     id="path55"
     fill="url(#New_Gradient_Swatch_2)"
     d="m 38.23,61.17 a 61.49,61.49 0 0 0 55.4,61.17 V 93.07 a 32.38,32.38 0 0 1 0,-63.8 V 0.01 a 61.49,61.49 0 0 0 -55.4,61.16" />
  <path
     style="fill:url(#New_Gradient_Swatch_2-2)"
     id="path57"
     fill="url(#New_Gradient_Swatch_2-2)"
     d="m 105.2,29.23 a 32.37,32.37 0 0 1 0,63.89 v 29.23 A 61.45,61.45 0 0 0 105.2,0 Z" />
</svg>
